# Blender v2.82 (sub 7) OBJ File: '09fpsenemy.blend'
# www.blender.org
mtllib 09fpsenemy.mtl
o Cube.001_Cube.002
v -0.487116 -2.000000 0.487116
v -0.487116 2.000000 0.487116
v -0.487116 -2.000000 -0.487116
v -0.487116 2.000000 -0.487116
v 0.487116 -2.000000 0.487116
v 0.487116 2.000000 0.487116
v 0.487116 -2.000000 -0.487116
v 0.487116 2.000000 -0.487116
v -0.285815 2.386700 0.285815
v -0.285815 2.386700 -0.285815
v 0.285815 2.386700 -0.285815
v 0.285815 2.386700 0.285815
v -0.326965 2.533738 0.326965
v -0.326965 2.533738 -0.326965
v 0.326965 2.533738 -0.326965
v 0.326965 2.533738 0.326965
v -0.340981 1.400000 -0.537116
v -0.340981 -1.400000 -0.537116
v 0.340981 -1.400000 -0.537116
v 0.340981 1.400000 -0.537116
v -0.389692 1.600000 -0.587116
v -0.389692 -1.600000 -0.587116
v 0.389692 -1.600000 -0.587116
v 0.389692 1.600000 -0.587116
v -0.537116 -1.400000 -0.340981
v -0.537116 -1.400000 0.340981
v -0.537116 1.400000 0.340981
v -0.537116 1.400000 -0.340981
v -0.587116 -1.600000 -0.389692
v -0.587116 -1.600000 0.389692
v -0.587116 1.600000 0.389692
v -0.587116 1.600000 -0.389692
v -0.340981 -1.400000 0.537116
v -0.340981 1.400000 0.537116
v 0.340981 1.400000 0.537116
v 0.340981 -1.400000 0.537116
v -0.389692 -1.600000 0.587116
v -0.389692 1.600000 0.587116
v 0.389692 1.600000 0.587116
v 0.389692 -1.600000 0.587116
v 0.537116 1.400000 -0.340981
v 0.537116 -1.400000 -0.340981
v 0.537116 -1.400000 0.340981
v 0.537116 1.400000 0.340981
v 0.587116 1.600000 -0.389692
v 0.587116 -1.600000 -0.389692
v 0.587116 -1.600000 0.389692
v 0.587116 1.600000 0.389692
v -0.487116 -2.000000 -0.487116
v 0.487116 -2.000000 -0.487116
v -0.487116 -2.000000 0.487116
v 0.487116 -2.000000 0.487116
v -0.487116 -2.000000 0.487116
v 0.487116 -2.000000 0.487116
vt 0.375000 1.000000
vt 0.625000 1.000000
vt 0.625000 1.000000
vt 0.375000 1.000000
vt 0.625000 0.500000
vt 0.375000 0.500000
vt 0.375000 0.500000
vt 0.625000 0.500000
vt 0.625000 0.750000
vt 0.375000 0.750000
vt 0.375000 0.750000
vt 0.625000 0.750000
vt 0.375000 1.000000
vt 0.625000 1.000000
vt 0.625000 0.500000
vt 0.625000 0.750000
vt 0.640732 0.515732
vt 0.859268 0.515732
vt 0.859268 0.734268
vt 0.640732 0.734268
vt 0.625000 0.250000
vt 0.625000 0.000000
vt 0.625000 0.000000
vt 0.625000 0.250000
vt 0.625000 1.000000
vt 0.875000 0.500000
vt 0.875000 0.750000
vt 0.390625 0.265625
vt 0.609375 0.265625
vt 0.609375 0.484375
vt 0.390625 0.484375
vt 0.000000 0.000000
vt 0.000000 0.000000
vt 0.000000 0.000000
vt 0.000000 0.000000
vt 0.625000 0.250000
vt 0.375000 0.250000
vt 0.375000 0.250000
vt 0.390625 0.015625
vt 0.609375 0.015625
vt 0.609375 0.234375
vt 0.390625 0.234375
vt 0.625000 0.250000
vt 0.625000 0.000000
vt 0.000000 0.000000
vt 0.000000 0.000000
vt 0.000000 0.000000
vt 0.375000 0.250000
vt 0.375000 0.000000
vt 0.390625 0.765625
vt 0.609375 0.765625
vt 0.609375 0.984375
vt 0.390625 0.984375
vt 0.000000 0.000000
vt 0.000000 0.000000
vt 0.000000 0.000000
vt 0.625000 0.750000
vt 0.375000 0.750000
vt 0.390625 0.515625
vt 0.609375 0.515625
vt 0.609375 0.734375
vt 0.390625 0.734375
vt 0.000000 0.000000
vt 0.000000 0.000000
vt 0.625000 0.500000
vt 0.375000 0.500000
vt 0.000000 0.000000
vt 0.000000 0.000000
vt 0.000000 0.000000
vt 0.000000 0.000000
vt 0.000000 0.000000
vt 0.000000 0.000000
vn -0.6978 0.0000 0.7163
vn 0.7163 0.0000 -0.6978
vn 0.6978 0.0000 0.7163
vn -0.7163 0.0000 0.6978
vn 0.9578 0.2874 0.0000
vn 0.0000 1.0000 0.0000
vn -0.9578 0.2874 0.0000
vn 0.0000 0.2874 0.9578
vn 0.0000 0.2874 -0.9578
vn 0.9630 0.2695 0.0000
vn 0.0000 0.2695 0.9630
vn -0.9630 0.2695 0.0000
vn 0.0000 0.2695 -0.9630
vn 0.0000 0.0000 -1.0000
vn 0.0000 -0.2425 -0.9701
vn 0.0000 0.2425 -0.9701
vn -0.7163 0.0000 -0.6978
vn -1.0000 0.0000 0.0000
vn -0.9701 0.2425 0.0000
vn -0.9701 -0.2425 0.0000
vn -0.6978 0.0000 -0.7163
vn 0.0000 0.0000 1.0000
vn 0.0000 -0.2425 0.9701
vn 0.0000 0.2425 0.9701
vn 0.7163 0.0000 0.6978
vn 1.0000 0.0000 0.0000
vn 0.9701 -0.2425 0.0000
vn 0.9701 0.2425 0.0000
vn 0.6978 0.0000 -0.7163
vn 0.0000 -1.0000 0.0000
usemtl Material.001
s off
f 1/1/1 2/2/1 31/3/1 30/4/1
f 8/5/2 7/6/2 23/7/2 24/8/2
f 6/9/3 5/10/3 47/11/3 48/12/3
f 2/2/4 1/1/4 37/13/4 38/14/4
f 6/9/5 8/5/5 15/15/5 16/16/5
f 11/17/6 10/18/6 9/19/6 12/20/6
f 4/21/7 2/22/7 13/23/7 14/24/7
f 2/2/8 6/9/8 16/16/8 13/25/8
f 8/5/9 4/21/9 14/24/9 15/15/9
f 9/19/10 10/18/10 14/26/10 13/27/10
f 10/18/11 11/17/11 15/15/11 14/26/11
f 11/17/12 12/20/12 16/16/12 15/15/12
f 12/20/13 9/19/13 13/27/13 16/16/13
f 18/28/14 17/29/14 20/30/14 19/31/14
f 7/32/15 3/33/15 22/34/15 23/35/15
f 4/21/16 8/5/16 24/8/16 21/36/16
f 3/37/17 4/21/17 21/36/17 22/38/17
f 17/29/2 18/28/2 22/38/2 21/36/2
f 18/28/16 19/31/16 23/7/16 22/38/16
f 20/30/15 17/29/15 21/36/15 24/8/15
f 19/31/17 20/30/17 24/8/17 23/7/17
f 26/39/18 27/40/18 28/41/18 25/42/18
f 2/22/19 4/21/19 32/43/19 31/44/19
f 3/33/20 1/45/20 30/46/20 29/47/20
f 4/21/21 3/37/21 29/48/21 32/43/21
f 26/39/19 25/42/19 29/48/19 30/49/19
f 27/40/21 26/39/21 30/49/21 31/44/21
f 28/41/20 27/40/20 31/44/20 32/43/20
f 25/42/1 28/41/1 32/43/1 29/48/1
f 36/50/22 35/51/22 34/52/22 33/53/22
f 1/45/23 5/54/23 40/55/23 37/56/23
f 6/9/24 2/2/24 38/14/24 39/57/24
f 5/10/25 6/9/25 39/57/25 40/58/25
f 33/53/25 34/52/25 38/14/25 37/13/25
f 35/51/4 36/50/4 40/58/4 39/57/4
f 36/50/24 33/53/24 37/13/24 40/58/24
f 34/52/23 35/51/23 39/57/23 38/14/23
f 42/59/26 41/60/26 44/61/26 43/62/26
f 5/54/27 7/32/27 46/63/27 47/64/27
f 8/5/28 6/9/28 48/12/28 45/65/28
f 7/6/29 8/5/29 45/65/29 46/66/29
f 41/60/3 42/59/3 46/66/3 45/65/3
f 42/59/28 43/62/28 47/11/28 46/66/28
f 44/61/27 41/60/27 45/65/27 48/12/27
f 43/62/29 44/61/29 48/12/29 47/11/29
f 3/33/22 7/32/22 50/67/22 49/68/22
f 5/54/22 1/45/22 51/69/22 52/70/22
f 52/70/22 51/69/22 53/71/22 54/72/22
f 50/67/30 54/72/30 53/71/30 49/68/30
